# File created by Blade
# Date/Time:  Tue Apr 07 20:22:14 2015
# Frame Rate: 120.000 fps
#------------------------------------------------------
:FULLY-SPECIFIED
:DEGREES
1861
root 3.314280 32.941942 -10.131993 21.332735 1.019986 -7.222681
Spine -11.213340 -9.163744 2.340419
Head 14.227180 -6.277585 12.285173
LeftShoulder -17.254681 45.385252 13.686581
LeftArm 49.669131 -2.208668 -85.140735
LeftForeArm 1.511624 -0.000000 41.983045
LeftHand 7.600903 -0.000000 7.045240
LeftHandThumb1 -26.253704 0.000000 33.147579
RightShoulder -9.991999 -15.608240 -12.704128
RightArm 4.461206 -4.169959 93.361901
RightForeArm 8.898435 -0.000000 10.527241
RightHand 5.252229 -0.000000 9.134635
RightHandThumb1 -24.326973 -0.000000 -32.862282
LeftUpLeg -26.061058 -7.388558 6.342202
LeftLeg 11.180530 -0.000000 -0.000000
LeftFoot -9.535820 14.899993 -10.018529
LeftToeBase -7.553562 -0.000000 0.000000
RightUpLeg -31.804488 0.322461 0.876143
RightLeg 26.718349 -0.000000 -0.000000
RightFoot -6.499661 0.669101 16.983855
RightToeBase -5.939424 -0.000000 0.000000
1862
root 3.334679 32.931988 -10.137193 21.436995 0.830975 -7.272768
Spine -11.259814 -8.902452 2.302185
Head 13.986003 -6.270913 12.338392
LeftShoulder -17.228946 45.360993 13.712511
LeftArm 49.557048 -2.307859 -85.309469
LeftForeArm 1.414941 -0.000000 42.222715
LeftHand 7.609023 -0.000000 7.060496
LeftHandThumb1 -26.253704 0.000000 33.147579
RightShoulder -9.945256 -15.474698 -12.680502
RightArm 4.477040 -4.126454 93.304787
RightForeArm 8.974032 0.000000 10.477980
RightHand 5.266885 0.000000 9.090980
RightHandThumb1 -24.326973 -0.000000 -32.862282
LeftUpLeg -26.098471 -7.403128 6.326902
LeftLeg 11.093495 -0.000000 -0.000000
LeftFoot -9.559573 15.230252 -9.741136
LeftToeBase -7.472929 -0.000000 0.000000
RightUpLeg -32.149019 0.227039 0.876516
RightLeg 27.063069 -0.000000 -0.000000
RightFoot -6.221464 1.023212 16.635287
RightToeBase -6.332888 -0.000000 0.000000
1863
root 3.354305 32.922683 -10.140753 21.504325 0.641887 -7.318209
Spine -11.265823 -8.676501 2.257999
Head 13.767193 -6.232813 12.393333
LeftShoulder -17.238357 45.382976 13.709949
LeftArm 49.496966 -2.381729 -85.436600
LeftForeArm 1.266954 -0.000000 42.364399
LeftHand 7.596297 -0.000000 7.104247
LeftHandThumb1 -26.253704 0.000000 33.147579
RightShoulder -9.893174 -15.348066 -12.629864
RightArm 4.565947 -4.225810 93.189962
RightForeArm 9.248425 -0.000000 10.430851
RightHand 5.463697 -0.000000 8.720024
RightHandThumb1 -24.326973 -0.000000 -32.862282
LeftUpLeg -26.104817 -7.383963 6.307525
LeftLeg 11.038303 -0.000000 -0.000000
LeftFoot -9.605460 15.522984 -9.572617
LeftToeBase -7.732891 -0.000000 0.000000
RightUpLeg -32.437383 0.235914 0.846155
RightLeg 27.374453 -0.000000 -0.000000
RightFoot -6.005359 1.254258 16.326040
RightToeBase -6.678181 -0.000000 0.000000
1864
root 3.373628 32.915604 -10.143559 21.557529 0.452534 -7.345422
Spine -11.252911 -8.450393 2.186103
Head 13.563506 -6.196461 12.451284
LeftShoulder -17.259417 45.455653 13.691766
LeftArm 49.518613 -2.414561 -85.492008
LeftForeArm 1.071960 -0.000000 42.397785
LeftHand 7.597566 -0.000000 7.236109
LeftHandThumb1 -26.253704 0.000000 33.147579
RightShoulder -9.864256 -15.238164 -12.542877
RightArm 4.652612 -4.202954 93.060070
RightForeArm 9.299179 -0.000000 10.536431
RightHand 5.495620 -0.000000 8.561320
RightHandThumb1 -24.326973 -0.000000 -32.862282
LeftUpLeg -26.115858 -7.241526 6.245655
LeftLeg 11.025394 -0.000000 -0.000000
LeftFoot -9.654858 15.551636 -9.543021
LeftToeBase -7.774539 -0.000000 0.000000
RightUpLeg -32.720618 0.226827 0.826713
RightLeg 27.704026 -0.000000 -0.000000
RightFoot -5.819212 1.394928 15.936526
RightToeBase -6.972070 -0.000000 0.000000
1865
root 3.393436 32.911884 -10.147928 21.590716 0.293173 -7.354051
Spine -11.202670 -8.259947 2.102596
Head 13.347611 -6.166481 12.499450
LeftShoulder -17.261855 45.488463 13.696703
LeftArm 49.516442 -2.426668 -85.520030
LeftForeArm 0.906570 -0.000000 42.329546
LeftHand 7.696643 -0.000000 7.339296
LeftHandThumb1 -26.253704 0.000000 33.147579
RightShoulder -9.864646 -15.103807 -12.433691
RightArm 4.737319 -4.171105 92.907816
RightForeArm 9.191758 -0.000000 10.720421
RightHand 5.487630 -0.000000 8.489222
RightHandThumb1 -24.326973 -0.000000 -32.862282
LeftUpLeg -26.145747 -7.025350 6.152870
LeftLeg 11.078854 -0.000000 -0.000000
LeftFoot -9.686753 15.372150 -9.628382
LeftToeBase -7.771524 -0.000000 0.000000
RightUpLeg -32.966374 0.204993 0.803435
RightLeg 27.994593 -0.000000 -0.000000
RightFoot -5.629465 1.489273 15.597209
RightToeBase -7.297666 -0.000000 0.000000
